<svg width="335" height="66" viewBox="0 0 335 66" fill="none" xmlns="http://www.w3.org/2000/svg">
<path d="M62 2C44.8787 2 31 15.8787 31 33C31 50.1213 44.8787 64 62 64C79.1213 64 93 50.1213 93 33C93 15.8787 79.1213 2 62 2Z" stroke="#51D6CA" stroke-width="3.5" stroke-linecap="round" stroke-linejoin="round"/>
<path d="M49.6 61.4208V39.2L62 17.5L74.4 39.2V61.4208" stroke="#51D6CA" stroke-width="3.5" stroke-linecap="round" stroke-linejoin="round"/>
<path d="M49.6 39.2001C49.6 39.2001 53.0937 42.3001 55.8 42.3001C58.5063 42.3001 62 39.2001 62 39.2001C62 39.2001 65.4937 42.3001 68.2 42.3001C70.9063 42.3001 74.4 39.2001 74.4 39.2001" stroke="#51D6CA" stroke-width="3.5" stroke-linecap="round" stroke-linejoin="round"/>
<path d="M20.04 45.16L1.72 36.8V33.24L20.04 24.92V28.96L6.32 35L20.04 41.08V45.16Z" fill="#51D6CA"/>
<path d="M103.72 46.16V42.08L117.48 36L103.72 29.96V25.92L122.04 34.24V37.8L103.72 46.16Z" fill="#51D6CA"/>
<path d="M139.44 48.4C137.28 48.4 135.36 48.0933 133.68 47.48V42.92C135.013 43.5067 136.573 43.8 138.36 43.8C140.013 43.8 141.187 43.4667 141.88 42.8C142.6 42.1067 142.96 40.9867 142.96 39.44V22.24H148.36V40.64C148.36 45.8133 145.387 48.4 139.44 48.4ZM152.702 48V22.24H163.502C167.369 22.24 170.275 23.24 172.222 25.24C174.195 27.2133 175.182 30.5467 175.182 35.24C175.182 39.6667 174.209 42.9067 172.262 44.96C170.342 46.9867 167.422 48 163.502 48H152.702ZM158.102 43.84H162.742C164.262 43.84 165.542 43.6133 166.582 43.16C167.622 42.68 168.395 41.8267 168.902 40.6C169.435 39.3467 169.702 37.56 169.702 35.24C169.702 32.92 169.462 31.1467 168.982 29.92C168.502 28.6933 167.755 27.8533 166.742 27.4C165.729 26.9467 164.395 26.72 162.742 26.72H158.102V43.84ZM187.741 48V22.24H198.541C202.408 22.24 205.314 23.24 207.261 25.24C209.234 27.2133 210.221 30.5467 210.221 35.24C210.221 39.6667 209.248 42.9067 207.301 44.96C205.381 46.9867 202.461 48 198.541 48H187.741ZM193.141 43.84H197.781C199.301 43.84 200.581 43.6133 201.621 43.16C202.661 42.68 203.434 41.8267 203.941 40.6C204.474 39.3467 204.741 37.56 204.741 35.24C204.741 32.92 204.501 31.1467 204.021 29.92C203.541 28.6933 202.794 27.8533 201.781 27.4C200.768 26.9467 199.434 26.72 197.781 26.72H193.141V43.84ZM223.871 48.4C220.591 48.4 217.991 47.5867 216.071 45.96C214.151 44.3067 213.191 41.8133 213.191 38.48C213.191 35.4667 213.991 33.08 215.591 31.32C217.218 29.5333 219.631 28.64 222.831 28.64C225.764 28.64 228.004 29.4133 229.551 30.96C231.124 32.48 231.911 34.48 231.911 36.96V40.4H218.191C218.484 41.92 219.178 42.96 220.271 43.52C221.391 44.08 222.964 44.36 224.991 44.36C226.004 44.36 227.031 44.2667 228.071 44.08C229.138 43.8933 230.044 43.6533 230.791 43.36V47.2C229.911 47.6 228.884 47.8933 227.711 48.08C226.538 48.2933 225.258 48.4 223.871 48.4ZM218.191 37.08H227.191V36.04C227.191 34.9467 226.871 34.0933 226.231 33.48C225.591 32.84 224.511 32.52 222.991 32.52C221.204 32.52 219.951 32.88 219.231 33.6C218.538 34.32 218.191 35.48 218.191 37.08ZM242.155 48.4C240.742 48.4 239.395 48.2933 238.115 48.08C236.835 47.8933 235.809 47.6533 235.035 47.36V42.88C235.969 43.2533 237.022 43.5467 238.195 43.76C239.369 43.9467 240.449 44.04 241.435 44.04C242.769 44.04 243.702 43.96 244.235 43.8C244.795 43.64 245.075 43.28 245.075 42.72C245.075 42.08 244.649 41.6133 243.795 41.32C242.969 41.0267 241.729 40.6133 240.075 40.08C238.342 39.4933 237.009 38.7867 236.075 37.96C235.142 37.1333 234.675 35.9067 234.675 34.28C234.675 32.4667 235.329 31.08 236.635 30.12C237.969 29.1333 240.102 28.64 243.035 28.64C244.209 28.64 245.315 28.7333 246.355 28.92C247.395 29.08 248.275 29.28 248.995 29.52V33.96C248.275 33.6133 247.449 33.36 246.515 33.2C245.582 33.0133 244.715 32.92 243.915 32.92C242.769 32.92 241.849 33 241.155 33.16C240.489 33.32 240.155 33.6667 240.155 34.2C240.155 34.7867 240.515 35.2 241.235 35.44C241.982 35.68 243.129 36.04 244.675 36.52C246.195 36.9733 247.382 37.4667 248.235 38C249.089 38.5333 249.689 39.1733 250.035 39.92C250.382 40.64 250.555 41.5467 250.555 42.64C250.555 46.48 247.755 48.4 242.155 48.4ZM255.623 25.56V21.32H261.503V25.56H255.623ZM256.063 48V33.04H253.223L253.703 29.04H261.463V48H256.063ZM274.061 55.04C272.648 55.04 271.195 54.9467 269.701 54.76C268.235 54.5733 266.995 54.3067 265.981 53.96V49.92C267.048 50.2667 268.301 50.5333 269.741 50.72C271.181 50.9333 272.528 51.04 273.781 51.04C275.621 51.04 276.955 50.9333 277.781 50.72C278.608 50.5333 279.021 50.1867 279.021 49.68C279.021 49.2533 278.835 48.96 278.461 48.8C278.115 48.64 277.368 48.56 276.221 48.56H271.061C267.675 48.56 265.981 47.3067 265.981 44.8C265.981 44.0267 266.195 43.32 266.621 42.68C267.048 42.04 267.728 41.5333 268.661 41.16C266.501 40.0667 265.421 38.2267 265.421 35.64C265.421 33.1867 266.181 31.4133 267.701 30.32C269.221 29.2 271.475 28.64 274.461 28.64C275.075 28.64 275.741 28.6933 276.461 28.8C277.208 28.88 277.768 28.96 278.141 29.04H285.261L285.141 32.44H282.141C282.968 33.2133 283.381 34.2933 283.381 35.68C283.381 37.6267 282.768 39.1867 281.541 40.36C280.315 41.5067 278.501 42.08 276.101 42.08C275.675 42.08 275.261 42.0667 274.861 42.04C274.488 41.9867 274.101 41.9333 273.701 41.88C272.901 41.9867 272.221 42.1733 271.661 42.44C271.128 42.7067 270.861 43.0667 270.861 43.52C270.861 44.1333 271.408 44.44 272.501 44.44H277.861C279.781 44.44 281.261 44.88 282.301 45.76C283.341 46.6133 283.861 47.8667 283.861 49.52C283.861 51.3867 283.021 52.7733 281.341 53.68C279.661 54.5867 277.235 55.04 274.061 55.04ZM274.501 39.04C276.101 39.04 277.208 38.7733 277.821 38.24C278.461 37.68 278.781 36.7467 278.781 35.44C278.781 34.1333 278.461 33.1867 277.821 32.6C277.208 32.0133 276.101 31.72 274.501 31.72C272.981 31.72 271.888 32.0133 271.221 32.6C270.555 33.16 270.221 34.1067 270.221 35.44C270.221 36.6667 270.528 37.5733 271.141 38.16C271.781 38.7467 272.901 39.04 274.501 39.04ZM287.507 48V29.04H292.507L292.707 30.84C293.48 30.2533 294.453 29.7467 295.627 29.32C296.827 28.8667 298.08 28.64 299.387 28.64C301.893 28.64 303.72 29.2267 304.867 30.4C306.013 31.5733 306.587 33.3867 306.587 35.84V48H301.187V36.12C301.187 34.84 300.92 33.9333 300.387 33.4C299.88 32.8667 298.92 32.6 297.507 32.6C296.68 32.6 295.84 32.7867 294.987 33.16C294.16 33.5333 293.467 34 292.907 34.56V48H287.507ZM317.663 48.4C316.25 48.4 314.903 48.2933 313.623 48.08C312.343 47.8933 311.316 47.6533 310.543 47.36V42.88C311.476 43.2533 312.53 43.5467 313.703 43.76C314.876 43.9467 315.956 44.04 316.943 44.04C318.276 44.04 319.21 43.96 319.743 43.8C320.303 43.64 320.583 43.28 320.583 42.72C320.583 42.08 320.156 41.6133 319.303 41.32C318.476 41.0267 317.236 40.6133 315.583 40.08C313.85 39.4933 312.516 38.7867 311.583 37.96C310.65 37.1333 310.183 35.9067 310.183 34.28C310.183 32.4667 310.836 31.08 312.143 30.12C313.476 29.1333 315.61 28.64 318.543 28.64C319.716 28.64 320.823 28.7333 321.863 28.92C322.903 29.08 323.783 29.28 324.503 29.52V33.96C323.783 33.6133 322.956 33.36 322.023 33.2C321.09 33.0133 320.223 32.92 319.423 32.92C318.276 32.92 317.356 33 316.663 33.16C315.996 33.32 315.663 33.6667 315.663 34.2C315.663 34.7867 316.023 35.2 316.743 35.44C317.49 35.68 318.636 36.04 320.183 36.52C321.703 36.9733 322.89 37.4667 323.743 38C324.596 38.5333 325.196 39.1733 325.543 39.92C325.89 40.64 326.063 41.5467 326.063 42.64C326.063 46.48 323.263 48.4 317.663 48.4Z" fill="#51D6CA"/>
</svg>
